<svg xmlns="http://www.w3.org/2000/svg" viewBox="0 0 100 100" width="100" height="100">
  <!-- Ear shape -->
  <path d="M52 10
    C30 10 18 26 18 44
    C18 58 25 66 32 72
    C36 76 38 80 38 85
    C38 89 41 92 45 92
    C49 92 52 89 52 85
    C52 81 49 77 47 74
    C44 70 42 66 42 62
    C42 56 46 52 50 52
    C58 52 64 46 64 38
    C64 30 60 22 52 18
    C50 17 51 13 52 10Z"
    fill="#4A6B8A" stroke="none"/>

  <!-- Inner ear curve -->
  <path d="M46 28
    C38 30 34 37 34 44
    C34 50 37 55 40 59"
    fill="none" stroke="#6B8FAF" stroke-width="4" stroke-linecap="round"/>

  <!-- Sound waves -->
  <line x1="72" y1="35" x2="84" y2="30" stroke="#4A90D9" stroke-width="4.5" stroke-linecap="round"/>
  <line x1="74" y1="46" x2="88" y2="46" stroke="#4A90D9" stroke-width="4.5" stroke-linecap="round"/>
  <line x1="72" y1="57" x2="84" y2="62" stroke="#4A90D9" stroke-width="4.5" stroke-linecap="round"/>
</svg>
